<svg width="606" height="336" viewBox="0 0 606 336" fill="none" xmlns="http://www.w3.org/2000/svg">
<g clip-path="url(#clip0_8_44)">
<rect width="606" height="336" fill="url(#paint0_linear_8_44)"/>
<path d="M109 268.5C51.1962 278.22 -34.5 312.5 -34.5 312.5L-84.5 411.5C-67.8333 378.5 -32.2 323.3 -23 366.5C-13.8 409.7 424.5 393.833 642.5 380.5V118C623.833 108.667 578.76 99.5253 541 103.5C512.5 106.5 483.104 124.5 460.5 154C437.896 183.5 432.106 251.888 384.5 289.5C299.834 356.391 215.408 250.606 109 268.5Z" fill="url(#paint1_linear_8_44)"/>
<path d="M128.257 113C55.6748 144.919 -26.9708 226 -26.9708 226L-44 -24L404 -30C404 -30 379.631 37.0018 340.468 67C279.654 113.582 202.907 80.1723 128.257 113Z" fill="url(#paint2_linear_8_44)"/>
<path d="M34.7854 69C13.4151 85.8443 -2.3379 123 -2.3379 123L-11 -39L260 -34C252.163 -22.3333 249.807 -17.8352 221.639 22C214.215 32.5 197.509 42.0625 168.429 45C139.349 47.9375 75.3569 37.0211 34.7854 69Z" fill="url(#paint3_linear_8_44)"/>
<rect width="606" height="336" fill="url(#paint4_linear_8_44)"/>
<path d="M316.77 254.419C316.379 255.981 315.646 256.958 314.572 257.349C313.498 257.69 312.424 257.642 311.35 257.202C310.324 256.763 309.445 256.006 308.713 254.932C308.029 253.857 307.834 252.686 308.127 251.416C308.859 248.096 309.909 244.434 311.276 240.43C312.692 236.377 314.084 232.349 315.451 228.345C314.719 227.222 314.133 226.099 313.693 224.976C313.254 223.804 313.034 222.583 313.034 221.313C313.034 220.044 313.498 218.726 314.426 217.358C315.402 215.942 316.55 214.648 317.868 213.477C319.235 212.305 320.627 211.353 322.043 210.62C323.508 209.839 324.753 209.448 325.778 209.448C327.585 209.448 328.928 210.059 329.807 211.279C330.734 212.5 331.198 214.136 331.198 216.187C331.198 217.31 331.003 218.433 330.612 219.556C330.271 220.63 329.88 221.655 329.44 222.632C329.001 223.56 328.586 224.365 328.195 225.049C327.854 225.732 327.658 226.172 327.609 226.367C329.367 229.492 331.198 232.251 333.103 234.644C335.007 237.036 336.74 239.404 338.303 241.748C339.914 244.092 341.232 246.582 342.258 249.219C343.283 251.855 343.796 254.956 343.796 258.521C343.796 259.399 343.723 260.303 343.576 261.23C343.479 262.158 343.308 263.037 343.063 263.867C344.821 263.525 346.359 262.988 347.678 262.256C349.045 261.523 350.217 260.693 351.193 259.766C352.219 258.789 353.049 257.739 353.684 256.616C354.367 255.493 354.929 254.321 355.368 253.101C355.905 251.685 356.442 250.659 356.979 250.024C357.517 249.39 358.127 249.072 358.811 249.072C359.445 249.072 360.08 249.292 360.715 249.731C361.398 250.122 361.984 250.635 362.473 251.27C363.01 251.904 363.425 252.563 363.718 253.247C364.06 253.931 364.23 254.541 364.23 255.078C364.23 255.811 364.035 256.689 363.645 257.715C363.254 258.74 362.717 259.79 362.033 260.864C361.398 261.938 360.666 262.988 359.836 264.014C359.006 264.99 358.151 265.845 357.272 266.577C354.929 268.481 352.17 270.093 348.996 271.411C345.822 272.681 341.892 273.486 337.204 273.828C335.397 275.391 333.249 276.66 330.759 277.637C328.317 278.662 325.559 279.175 322.482 279.175C320.92 279.175 319.309 278.979 317.648 278.589C316.037 278.198 314.475 277.686 312.961 277.051C311.496 276.465 310.153 275.806 308.933 275.073C307.712 274.341 306.735 273.608 306.003 272.876C304.147 271.118 302.951 269.36 302.414 267.603C301.877 265.796 301.755 264.185 302.048 262.769C302.292 261.353 302.805 260.205 303.586 259.326C304.367 258.398 305.173 257.935 306.003 257.935C306.491 257.935 307.248 258.154 308.273 258.594C309.348 258.984 310.568 259.521 311.936 260.205C313.303 260.84 314.792 261.523 316.403 262.256C318.015 262.988 319.626 263.696 321.237 264.38C322.849 265.015 324.411 265.552 325.925 265.991C327.487 266.382 328.903 266.577 330.173 266.577C331.003 265.601 331.76 264.307 332.443 262.695C333.127 261.084 333.469 259.326 333.469 257.422C333.469 255.078 333.151 252.905 332.517 250.903C331.882 248.901 331.052 247.046 330.026 245.337C329.001 243.628 327.829 242.041 326.511 240.576C325.241 239.062 323.947 237.646 322.629 236.328C321.457 239.209 320.432 242.065 319.553 244.897C318.674 247.681 317.746 250.854 316.77 254.419ZM356.174 182.568C356.174 181.494 356.076 180.64 355.881 180.005C355.734 179.37 355.563 178.882 355.368 178.54C355.222 178.149 355.051 177.856 354.855 177.661C354.709 177.417 354.636 177.173 354.636 176.929C354.636 176.636 354.782 176.392 355.075 176.196C355.368 176.001 355.759 175.83 356.247 175.684C356.735 175.537 357.248 175.439 357.785 175.391C358.371 175.293 358.933 175.244 359.47 175.244C361.96 175.244 363.913 175.903 365.329 177.222C366.794 178.491 367.526 180.029 367.526 181.836V231.055C368.552 228.955 369.65 227.002 370.822 225.195C372.043 223.389 373.337 221.826 374.704 220.508C376.12 219.141 377.609 218.091 379.172 217.358C380.783 216.577 382.517 216.187 384.372 216.187C386.862 216.187 388.913 216.65 390.524 217.578C392.136 218.506 393.405 219.702 394.333 221.167C395.261 222.632 395.896 224.268 396.237 226.074C396.628 227.881 396.823 229.639 396.823 231.348V262.402C396.823 262.744 396.848 263.306 396.896 264.087C396.945 264.819 397.092 265.576 397.336 266.357C397.58 267.139 397.946 267.822 398.435 268.408C398.972 268.994 399.729 269.287 400.705 269.287C402.219 269.287 403.513 268.75 404.587 267.676C405.71 266.602 406.662 265.259 407.443 263.647C408.273 262.036 408.933 260.303 409.421 258.447C409.958 256.543 410.397 254.761 410.739 253.101C411.032 251.587 411.472 250.488 412.058 249.805C412.692 249.121 413.352 248.755 414.035 248.706C414.768 248.608 415.5 248.779 416.232 249.219C416.965 249.658 417.6 250.244 418.137 250.977C418.674 251.66 419.064 252.441 419.309 253.32C419.602 254.199 419.65 255.029 419.455 255.811C418.771 258.301 417.868 260.913 416.745 263.647C415.671 266.382 414.279 268.896 412.57 271.191C410.861 273.486 408.811 275.391 406.418 276.904C404.025 278.418 401.218 279.175 397.995 279.175C395.993 279.175 394.211 278.784 392.648 278.003C391.135 277.271 389.816 276.27 388.693 275C387.619 273.73 386.789 272.241 386.203 270.532C385.666 268.823 385.397 267.017 385.397 265.112V234.644C385.397 233.472 385.373 232.373 385.324 231.348C385.275 230.322 385.129 229.419 384.885 228.638C384.689 227.856 384.372 227.246 383.933 226.807C383.542 226.318 382.98 226.074 382.248 226.074C381.174 226.074 379.855 226.807 378.293 228.271C376.73 229.736 375.192 231.641 373.679 233.984C372.165 236.328 370.822 238.989 369.65 241.968C368.527 244.897 367.819 247.852 367.526 250.83V272.729C367.526 273.462 367.502 274.219 367.453 275C367.453 275.732 367.307 276.392 367.014 276.978C366.77 277.612 366.354 278.125 365.769 278.516C365.231 278.955 364.426 279.175 363.352 279.175C362.619 279.175 361.813 279.077 360.935 278.882C360.104 278.735 359.323 278.418 358.591 277.93C357.907 277.49 357.321 276.831 356.833 275.952C356.394 275.122 356.174 273.999 356.174 272.583V182.568ZM411.398 225.049C411.398 223.633 411.276 222.607 411.032 221.973C410.837 221.338 410.739 220.752 410.739 220.215C410.739 219.482 411.13 218.896 411.911 218.457C412.692 217.969 413.62 217.725 414.694 217.725C417.185 217.725 419.138 218.384 420.554 219.702C422.019 220.972 422.751 222.51 422.751 224.316V264.673C422.751 266.089 422.971 267.212 423.41 268.042C423.85 268.872 424.729 269.287 426.047 269.287C427.902 269.287 429.758 268.677 431.613 267.456C433.518 266.187 435.202 264.38 436.667 262.036C438.181 259.644 439.401 256.738 440.329 253.32C441.306 249.902 441.794 246.021 441.794 241.675C441.794 238.647 441.55 236.133 441.062 234.131C440.622 232.129 440.085 230.518 439.45 229.297C438.815 228.027 438.132 227.075 437.399 226.44C436.716 225.806 436.13 225.293 435.642 224.902C435.251 224.609 434.812 224.438 434.323 224.39C433.835 224.292 433.591 224.023 433.591 223.584C433.591 222.9 433.762 222.144 434.104 221.313C434.494 220.435 434.982 219.629 435.568 218.896C436.154 218.115 436.813 217.48 437.546 216.992C438.278 216.455 439.011 216.187 439.743 216.187C441.257 216.187 442.795 216.943 444.357 218.457C445.92 219.922 447.336 221.875 448.605 224.316C449.924 226.758 450.998 229.541 451.828 232.666C452.658 235.742 453.073 238.892 453.073 242.114C453.073 247.192 452.39 251.978 451.022 256.47C449.655 260.962 447.702 264.893 445.163 268.262C442.673 271.631 439.646 274.292 436.081 276.245C432.517 278.198 428.537 279.175 424.143 279.175C421.75 279.175 419.724 278.784 418.063 278.003C416.452 277.222 415.158 276.172 414.182 274.854C413.205 273.535 412.497 271.997 412.058 270.239C411.618 268.433 411.398 266.528 411.398 264.526V225.049ZM494.675 231.348C494.675 234.131 494.187 236.987 493.21 239.917C492.282 242.847 490.866 245.63 488.962 248.267C487.106 250.854 484.787 253.198 482.004 255.298C479.27 257.349 476.096 258.911 472.482 259.985C472.971 261.255 473.605 262.476 474.387 263.647C475.217 264.771 476.193 265.747 477.316 266.577C478.439 267.407 479.733 268.066 481.198 268.555C482.712 269.043 484.445 269.287 486.398 269.287C489.328 269.287 491.843 268.75 493.942 267.676C496.042 266.553 497.8 265.088 499.216 263.281C500.681 261.475 501.853 259.448 502.731 257.202C503.61 254.956 504.27 252.686 504.709 250.391C505.051 248.73 505.734 247.632 506.76 247.095C507.834 246.509 508.908 246.362 509.982 246.655C511.105 246.948 512.058 247.583 512.839 248.56C513.669 249.487 514.011 250.61 513.864 251.929C513.669 253.442 513.327 255.176 512.839 257.129C512.399 259.082 511.716 261.06 510.788 263.062C509.86 265.063 508.664 267.041 507.199 268.994C505.783 270.898 504.025 272.607 501.926 274.121C499.826 275.635 497.36 276.855 494.528 277.783C491.696 278.711 488.449 279.175 484.787 279.175C481.369 279.175 478.049 278.491 474.826 277.124C471.652 275.806 468.82 273.901 466.33 271.411C463.889 268.872 461.911 265.771 460.397 262.109C458.933 258.398 458.2 254.199 458.2 249.512C458.2 244.775 458.859 240.381 460.178 236.328C461.496 232.227 463.229 228.687 465.378 225.708C467.526 222.729 469.968 220.41 472.702 218.75C475.437 217.041 478.244 216.187 481.125 216.187C483.225 216.187 485.104 216.553 486.765 217.285C488.474 218.018 489.914 219.067 491.086 220.435C492.258 221.753 493.137 223.34 493.723 225.195C494.357 227.051 494.675 229.102 494.675 231.348ZM470.505 249.072C470.505 249.512 470.529 249.951 470.578 250.391C470.627 250.83 470.651 251.294 470.651 251.782C472.507 250.903 474.191 249.78 475.705 248.413C477.219 247.046 478.513 245.483 479.587 243.726C480.661 241.968 481.491 240.063 482.077 238.013C482.663 235.913 482.956 233.74 482.956 231.494C482.956 229.834 482.663 228.54 482.077 227.612C481.54 226.685 480.783 226.221 479.807 226.221C478.586 226.221 477.487 226.636 476.511 227.466C475.583 228.296 474.753 229.395 474.021 230.762C473.337 232.08 472.751 233.594 472.263 235.303C471.823 236.963 471.457 238.647 471.164 240.356C470.871 242.065 470.676 243.701 470.578 245.264C470.48 246.777 470.456 248.047 470.505 249.072ZM491.159 204.468C492.282 204.565 493.527 204.639 494.895 204.688C496.066 204.785 497.482 204.858 499.143 204.907C500.803 204.907 502.658 204.932 504.709 204.98V179.565C504.709 178.491 504.611 177.637 504.416 177.002C504.27 176.367 504.099 175.879 503.903 175.537C503.757 175.146 503.586 174.854 503.391 174.658C503.244 174.414 503.171 174.17 503.171 173.926C503.171 173.633 503.317 173.389 503.61 173.193C503.903 172.998 504.294 172.827 504.782 172.681C505.271 172.534 505.783 172.437 506.32 172.388C506.906 172.29 507.468 172.241 508.005 172.241C510.495 172.241 512.448 172.9 513.864 174.219C515.329 175.488 516.062 177.026 516.062 178.833V205.127C520.651 205.127 525.485 205.078 530.563 204.98C535.69 204.883 540.817 204.712 545.944 204.468C546.628 203.735 547.165 203.467 547.556 203.662C547.995 203.857 548.264 204.321 548.361 205.054C548.508 205.786 548.532 206.689 548.435 207.764C548.337 208.838 548.142 209.888 547.849 210.913C547.556 211.89 547.141 212.744 546.604 213.477C546.115 214.209 545.554 214.575 544.919 214.575C538.913 214.722 533.591 214.819 528.952 214.868C524.362 214.868 520.065 214.868 516.062 214.868V262.402C516.062 264.844 516.525 266.602 517.453 267.676C518.381 268.75 519.626 269.287 521.188 269.287C522.702 269.287 523.996 268.75 525.07 267.676C526.193 266.602 527.146 265.259 527.927 263.647C528.757 262.036 529.416 260.303 529.904 258.447C530.441 256.543 530.881 254.761 531.223 253.101C531.516 251.538 532.004 250.415 532.688 249.731C533.371 248.999 534.079 248.633 534.812 248.633C535.397 248.633 536.008 248.828 536.643 249.219C537.277 249.561 537.839 250.024 538.327 250.61C538.864 251.196 539.279 251.855 539.572 252.588C539.914 253.32 540.085 254.053 540.085 254.785C540.085 254.883 540.085 255.005 540.085 255.151C540.085 255.298 540.036 255.518 539.938 255.811C539.304 258.301 538.425 260.913 537.302 263.647C536.228 266.382 534.812 268.896 533.054 271.191C531.345 273.486 529.294 275.391 526.901 276.904C524.509 278.418 521.701 279.175 518.479 279.175C516.477 279.175 514.621 278.857 512.912 278.223C511.252 277.637 509.812 276.66 508.591 275.293C507.37 273.975 506.418 272.266 505.734 270.166C505.051 268.066 504.709 265.527 504.709 262.549V214.868C503.049 214.868 501.56 214.868 500.241 214.868C498.972 214.819 497.897 214.771 497.019 214.722C495.993 214.673 495.09 214.624 494.309 214.575C493.137 214.575 492.111 214.062 491.232 213.037C490.305 211.963 489.67 210.791 489.328 209.521C488.938 208.252 488.889 207.104 489.182 206.079C489.426 205.005 490.085 204.468 491.159 204.468Z" fill="#F7EFFF"/>
</g>
<defs>
<linearGradient id="paint0_linear_8_44" x1="529" y1="-2.50002" x2="19" y2="302" gradientUnits="userSpaceOnUse">
<stop stop-color="#BC09EC"/>
<stop offset="1" stop-color="#9D1860"/>
</linearGradient>
<linearGradient id="paint1_linear_8_44" x1="279" y1="102.546" x2="279" y2="469" gradientUnits="userSpaceOnUse">
<stop stop-color="#E23794"/>
<stop offset="1" stop-color="#D87500"/>
</linearGradient>
<linearGradient id="paint2_linear_8_44" x1="448" y1="7.99995" x2="-12.5" y2="222.5" gradientUnits="userSpaceOnUse">
<stop stop-color="#9500DC"/>
<stop offset="1" stop-color="#FF3636"/>
</linearGradient>
<linearGradient id="paint3_linear_8_44" x1="0.999997" y1="36" x2="307" y2="-66.5" gradientUnits="userSpaceOnUse">
<stop stop-color="#6F1997"/>
<stop offset="1" stop-color="#E6125E"/>
</linearGradient>
<linearGradient id="paint4_linear_8_44" x1="606" y1="320" x2="-85" y2="-74" gradientUnits="userSpaceOnUse">
<stop offset="0.0169734" stop-opacity="0.87"/>
<stop offset="0.199772" stop-opacity="0.791899"/>
<stop offset="1" stop-opacity="0.45"/>
</linearGradient>
<clipPath id="clip0_8_44">
<rect width="606" height="336" fill="white"/>
</clipPath>
</defs>
</svg>
